<svg width="16" height="15" viewBox="0 0 16 15" fill="none" xmlns="http://www.w3.org/2000/svg">
<path d="M7.38229 0.92705C7.68164 0.00573924 8.98505 0.00573965 9.2844 0.92705L10.354 4.21885C10.4878 4.63087 10.8718 4.90983 11.305 4.90983H14.7662C15.7349 4.90983 16.1377 6.14945 15.354 6.71885L12.5538 8.75329C12.2034 9.00793 12.0567 9.4593 12.1906 9.87132L13.2601 13.1631C13.5595 14.0844 12.505 14.8506 11.7213 14.2812L8.92113 12.2467C8.57064 11.9921 8.09605 11.9921 7.74556 12.2467L4.94539 14.2812C4.16167 14.8506 3.1072 14.0844 3.40655 13.1631L4.47612 9.87132C4.60999 9.4593 4.46333 9.00793 4.11285 8.75329L1.31268 6.71885C0.528962 6.14945 0.931738 4.90983 1.90046 4.90983H5.36166C5.79489 4.90983 6.17884 4.63087 6.31272 4.21885L7.38229 0.92705Z" fill="#000080"/>
</svg>
